<svg xmlns="http://www.w3.org/2000/svg" xmlns:xlink="http://www.w3.org/1999/xlink" viewBox="0 0 208.69 195.72"><defs><linearGradient id="c" x1="137.95" x2="157.63" y1="87.9" y2="72.93" gradientUnits="userSpaceOnUse"><stop offset="0" stop-color="#f2631c"/><stop offset="1" stop-color="#f4a819"/></linearGradient><linearGradient id="d" x1="95.69" x2="126.91" y1="19.07" y2="79.38" gradientUnits="userSpaceOnUse"><stop offset="0" stop-color="#f2631c"/><stop offset="1" stop-color="#f4a819"/></linearGradient><linearGradient id="e" x1="126.43" x2="158.83" y1="38.16" y2="38.16" gradientUnits="userSpaceOnUse"><stop offset="0" stop-color="#f4a819"/><stop offset="1" stop-color="#f2631c"/></linearGradient><linearGradient id="a" x1="-800.09" x2="-780.42" y1="488.89" y2="473.92" gradientTransform="rotate(120 -247.875 567.896)" gradientUnits="userSpaceOnUse"><stop offset="0" stop-color="#025dbf"/><stop offset="1" stop-color="#0090d5"/></linearGradient><linearGradient xlink:href="#a" id="f" x1="-842.36" x2="-811.13" y1="420.06" y2="480.38"/><linearGradient xlink:href="#a" id="g" x1="-811.62" x2="-779.22" y1="439.16" y2="439.16" gradientTransform="rotate(133.2 -268.16 500.473)"/><linearGradient id="b" x1=".95" x2="20.62" y1="1337.79" y2="1322.82" gradientTransform="rotate(-120 -328.8 682.186)" gradientUnits="userSpaceOnUse"><stop offset="0" stop-color="#c40661"/><stop offset="1" stop-color="#e50a6d"/></linearGradient><linearGradient xlink:href="#b" id="h" x1="-46.12" x2="-14.9" y1="1272.61" y2="1332.92"/><linearGradient xlink:href="#b" id="i" x1="-15.38" x2="17.02" y1="1291.7" y2="1291.7" gradientTransform="rotate(-85.87 -627.155 673.933)"/></defs><path d="M121.93 63.02h26.73c12.83 0 33.58 6.84 33.58 28.23h-52.83l-7.49-28.23Z" style="fill:url(#c)"/><path d="m75.95 26.02 25.02 53a21.34 21.34 0 0 0 19.3 12.23h38.55c-21.01 0-38.04-41.36-43.55-52.33-7.94-15.81-25.85-20.6-39.33-12.9Z" style="fill:url(#d)"/><circle cx="142.63" cy="38.16" r="16.2" style="fill:url(#e)"/><path d="M126.21 127.75s-6.95 12.04-13.37 23.15c-6.42 11.11-22.72 25.66-41.24 14.96l26.41-45.75 28.19 7.63Z" style="fill:url(#a)"/><path d="m181.25 106.42-58.41-4.83a21.36 21.36 0 0 0-20.25 10.6l-19.28 33.39c10.51-18.2 54.84-12.27 67.09-11.55 17.66 1.03 30.77-12.09 30.84-27.61Z" style="fill:url(#f)"/><circle cx="137.4" cy="158.1" r="16.2" style="fill:url(#g)" transform="rotate(-13.19 137.47 158.15)"/><path d="M66.09 97.46s-6.95-12.04-13.37-23.15c-6.42-11.11-10.86-32.5 7.66-43.2l26.41 45.75-20.71 20.6Z" style="fill:url(#b)"/><path d="m57.04 155.78 33.39-48.17a21.35 21.35 0 0 0 .94-22.83L72.09 51.39c10.51 18.2-16.8 53.62-23.54 63.88-9.72 14.78-4.92 32.69 8.49 40.51Z" style="fill:url(#h)"/><circle cx="34.22" cy="91.97" r="16.2" style="fill:url(#i)" transform="rotate(-34.13 34.207 91.952)"/></svg>